# xmcd CD database file
#
# Track frame offsets:
#	150
#	12835
#	27329
#	41976
#	55487
#	69418
#	84270
#	98845
#
# Disc length: 1495 seconds
#
# Revision: 0
# Processed by: cddbd v1.5.2PL0 Copyright (c) Steve Scherf et al.
# Submitted via: CDex 1.70beta2
#
DISCID=6105d508
DTITLE=Duke Ellington - SWING TIME 5
DYEAR=1900
DGENRE=Jazz
TTITLE0=Take The A Train8Live Version)
TTITLE1=It Don't Mean A Thing(If It Ain't Got That Swing)
TTITLE2=In The Shade Of The Old Apple Tree
TTITLE3=Battle Of Swing
TTITLE4=Move Over
TTITLE5=The Sidewalks of New Tork
TTITLE6=Trumpet In Spades
TTITLE7=Battle Of Swing(Original Version)
EXTD=
EXTT0=
EXTT1=
EXTT2=
EXTT3=
EXTT4=
EXTT5=
EXTT6=
EXTT7=
PLAYORDER=
